<mxfile host="app.diagrams.net" agent="Mozilla/5.0 (X11; Linux x86_64; rv:134.0) Gecko/20100101 Firefox/134.0" version="26.0.6">
  <diagram name="Page-1" id="lOFW8lWt-N1kBp46kLI4">
    <mxGraphModel dx="1931" dy="1295" grid="1" gridSize="10" guides="1" tooltips="1" connect="1" arrows="1" fold="1" page="1" pageScale="1" pageWidth="850" pageHeight="1100" math="0" shadow="0">
      <root>
        <mxCell id="0" />
        <mxCell id="1" parent="0" />
        <mxCell id="rgN-U1eAydfDt8y_0uh5-29" value="Навички" style="rounded=0;whiteSpace=wrap;html=1;" vertex="1" parent="1">
          <mxGeometry x="1120" y="62.5" width="120" height="20" as="geometry" />
        </mxCell>
        <mxCell id="rgN-U1eAydfDt8y_0uh5-30" value="назва" style="ellipse;whiteSpace=wrap;html=1;" vertex="1" parent="1">
          <mxGeometry x="1140" y="92.5" width="80" height="30" as="geometry" />
        </mxCell>
        <mxCell id="rgN-U1eAydfDt8y_0uh5-34" value="&lt;p&gt;ідентифікатор навички&lt;/p&gt;" style="ellipse;whiteSpace=wrap;html=1;" vertex="1" parent="1">
          <mxGeometry x="1130" y="2.5" width="100" height="50" as="geometry" />
        </mxCell>
        <mxCell id="rgN-U1eAydfDt8y_0uh5-39" value="" style="endArrow=none;html=1;rounded=0;entryX=0.5;entryY=0;entryDx=0;entryDy=0;exitX=0.5;exitY=1;exitDx=0;exitDy=0;" edge="1" parent="1" source="rgN-U1eAydfDt8y_0uh5-29" target="rgN-U1eAydfDt8y_0uh5-30">
          <mxGeometry width="50" height="50" relative="1" as="geometry">
            <mxPoint x="1220" y="132.5" as="sourcePoint" />
            <mxPoint x="1252" y="146.5" as="targetPoint" />
          </mxGeometry>
        </mxCell>
        <mxCell id="rgN-U1eAydfDt8y_0uh5-41" value="" style="endArrow=none;html=1;rounded=0;entryX=0.5;entryY=1;entryDx=0;entryDy=0;exitX=0.5;exitY=0;exitDx=0;exitDy=0;" edge="1" parent="1" source="rgN-U1eAydfDt8y_0uh5-29" target="rgN-U1eAydfDt8y_0uh5-34">
          <mxGeometry width="50" height="50" relative="1" as="geometry">
            <mxPoint x="1250" y="72.5" as="sourcePoint" />
            <mxPoint x="1310" y="62.5" as="targetPoint" />
          </mxGeometry>
        </mxCell>
        <mxCell id="rgN-U1eAydfDt8y_0uh5-43" value="Статуси замовлення" style="rounded=0;whiteSpace=wrap;html=1;" vertex="1" parent="1">
          <mxGeometry x="503" y="385" width="120" height="20" as="geometry" />
        </mxCell>
        <mxCell id="rgN-U1eAydfDt8y_0uh5-54" value="Категорії" style="rounded=0;whiteSpace=wrap;html=1;" vertex="1" parent="1">
          <mxGeometry x="2" y="280" width="120" height="20" as="geometry" />
        </mxCell>
        <mxCell id="rgN-U1eAydfDt8y_0uh5-55" value="назва" style="ellipse;whiteSpace=wrap;html=1;" vertex="1" parent="1">
          <mxGeometry x="22" y="310" width="80" height="30" as="geometry" />
        </mxCell>
        <mxCell id="rgN-U1eAydfDt8y_0uh5-57" value="" style="endArrow=none;html=1;rounded=0;entryX=0.5;entryY=0;entryDx=0;entryDy=0;exitX=0.5;exitY=1;exitDx=0;exitDy=0;" edge="1" parent="1" source="rgN-U1eAydfDt8y_0uh5-54" target="rgN-U1eAydfDt8y_0uh5-55">
          <mxGeometry width="50" height="50" relative="1" as="geometry">
            <mxPoint x="102" y="350" as="sourcePoint" />
            <mxPoint x="134" y="364" as="targetPoint" />
          </mxGeometry>
        </mxCell>
        <mxCell id="rgN-U1eAydfDt8y_0uh5-58" value="" style="endArrow=none;html=1;rounded=0;entryX=0.5;entryY=1;entryDx=0;entryDy=0;exitX=0.5;exitY=0;exitDx=0;exitDy=0;" edge="1" parent="1" source="rgN-U1eAydfDt8y_0uh5-54" target="rgN-U1eAydfDt8y_0uh5-56">
          <mxGeometry width="50" height="50" relative="1" as="geometry">
            <mxPoint x="132" y="290" as="sourcePoint" />
            <mxPoint x="192" y="280" as="targetPoint" />
          </mxGeometry>
        </mxCell>
        <mxCell id="rgN-U1eAydfDt8y_0uh5-60" value="" style="endArrow=none;html=1;rounded=0;entryX=0.5;entryY=1;entryDx=0;entryDy=0;exitX=0.5;exitY=0;exitDx=0;exitDy=0;" edge="1" parent="1" source="rgN-U1eAydfDt8y_0uh5-54" target="rgN-U1eAydfDt8y_0uh5-245">
          <mxGeometry width="50" height="50" relative="1" as="geometry">
            <mxPoint x="28" y="205" as="sourcePoint" />
            <mxPoint x="188" y="95" as="targetPoint" />
          </mxGeometry>
        </mxCell>
        <mxCell id="rgN-U1eAydfDt8y_0uh5-61" value="∞" style="edgeLabel;html=1;align=center;verticalAlign=middle;resizable=0;points=[];labelBackgroundColor=none;" vertex="1" connectable="0" parent="rgN-U1eAydfDt8y_0uh5-60">
          <mxGeometry x="0.0695" y="-2" relative="1" as="geometry">
            <mxPoint x="-27" y="37" as="offset" />
          </mxGeometry>
        </mxCell>
        <mxCell id="rgN-U1eAydfDt8y_0uh5-315" value="∞" style="edgeLabel;html=1;align=center;verticalAlign=middle;resizable=0;points=[];labelBackgroundColor=none;" vertex="1" connectable="0" parent="rgN-U1eAydfDt8y_0uh5-60">
          <mxGeometry x="0.2788" y="1" relative="1" as="geometry">
            <mxPoint x="-2" y="-23" as="offset" />
          </mxGeometry>
        </mxCell>
        <mxCell id="rgN-U1eAydfDt8y_0uh5-56" value="&lt;p&gt;ідентифікатор категорії&lt;/p&gt;" style="ellipse;whiteSpace=wrap;html=1;" vertex="1" parent="1">
          <mxGeometry x="12" y="220" width="100" height="50" as="geometry" />
        </mxCell>
        <mxCell id="rgN-U1eAydfDt8y_0uh5-90" value="Чорний список токенів" style="rounded=0;whiteSpace=wrap;html=1;" vertex="1" parent="1">
          <mxGeometry x="1110" y="742" width="130" height="20" as="geometry" />
        </mxCell>
        <mxCell id="rgN-U1eAydfDt8y_0uh5-91" value="токен" style="ellipse;whiteSpace=wrap;html=1;" vertex="1" parent="1">
          <mxGeometry x="1135" y="772" width="80" height="30" as="geometry" />
        </mxCell>
        <mxCell id="rgN-U1eAydfDt8y_0uh5-92" value="ідентифікатор токену" style="ellipse;whiteSpace=wrap;html=1;" vertex="1" parent="1">
          <mxGeometry x="1125" y="682" width="100" height="50" as="geometry" />
        </mxCell>
        <mxCell id="rgN-U1eAydfDt8y_0uh5-93" value="" style="endArrow=none;html=1;rounded=0;entryX=0.5;entryY=0;entryDx=0;entryDy=0;exitX=0.5;exitY=1;exitDx=0;exitDy=0;" edge="1" parent="1" source="rgN-U1eAydfDt8y_0uh5-90" target="rgN-U1eAydfDt8y_0uh5-91">
          <mxGeometry width="50" height="50" relative="1" as="geometry">
            <mxPoint x="1215" y="812" as="sourcePoint" />
            <mxPoint x="1247" y="826" as="targetPoint" />
          </mxGeometry>
        </mxCell>
        <mxCell id="rgN-U1eAydfDt8y_0uh5-94" value="" style="endArrow=none;html=1;rounded=0;entryX=0.5;entryY=1;entryDx=0;entryDy=0;exitX=0.5;exitY=0;exitDx=0;exitDy=0;" edge="1" parent="1" source="rgN-U1eAydfDt8y_0uh5-90" target="rgN-U1eAydfDt8y_0uh5-92">
          <mxGeometry width="50" height="50" relative="1" as="geometry">
            <mxPoint x="1245" y="752" as="sourcePoint" />
            <mxPoint x="1305" y="742" as="targetPoint" />
          </mxGeometry>
        </mxCell>
        <mxCell id="rgN-U1eAydfDt8y_0uh5-95" value="Файли" style="rounded=0;whiteSpace=wrap;html=1;" vertex="1" parent="1">
          <mxGeometry x="680" y="305" width="120" height="20" as="geometry" />
        </mxCell>
        <mxCell id="rgN-U1eAydfDt8y_0uh5-98" value="" style="endArrow=none;html=1;rounded=0;entryX=0.5;entryY=0;entryDx=0;entryDy=0;exitX=0.5;exitY=1;exitDx=0;exitDy=0;" edge="1" parent="1" source="rgN-U1eAydfDt8y_0uh5-95" target="rgN-U1eAydfDt8y_0uh5-96">
          <mxGeometry width="50" height="50" relative="1" as="geometry">
            <mxPoint x="780" y="375" as="sourcePoint" />
            <mxPoint x="812" y="389" as="targetPoint" />
          </mxGeometry>
        </mxCell>
        <mxCell id="rgN-U1eAydfDt8y_0uh5-99" value="" style="endArrow=none;html=1;rounded=0;entryX=0.5;entryY=1;entryDx=0;entryDy=0;exitX=0.5;exitY=0;exitDx=0;exitDy=0;" edge="1" parent="1" source="rgN-U1eAydfDt8y_0uh5-95" target="rgN-U1eAydfDt8y_0uh5-97">
          <mxGeometry width="50" height="50" relative="1" as="geometry">
            <mxPoint x="810" y="315" as="sourcePoint" />
            <mxPoint x="870" y="305" as="targetPoint" />
          </mxGeometry>
        </mxCell>
        <mxCell id="rgN-U1eAydfDt8y_0uh5-290" value="" style="endArrow=none;html=1;rounded=0;entryX=0.22;entryY=0.981;entryDx=0;entryDy=0;entryPerimeter=0;exitX=0.5;exitY=1;exitDx=0;exitDy=0;" edge="1" parent="1" source="rgN-U1eAydfDt8y_0uh5-77" target="rgN-U1eAydfDt8y_0uh5-285">
          <mxGeometry width="50" height="50" relative="1" as="geometry">
            <mxPoint x="708" y="-5" as="sourcePoint" />
            <mxPoint x="758" y="-55" as="targetPoint" />
          </mxGeometry>
        </mxCell>
        <mxCell id="rgN-U1eAydfDt8y_0uh5-291" value="" style="endArrow=none;html=1;rounded=0;entryX=0.5;entryY=1;entryDx=0;entryDy=0;exitX=0.5;exitY=0;exitDx=0;exitDy=0;" edge="1" parent="1" source="rgN-U1eAydfDt8y_0uh5-218" target="rgN-U1eAydfDt8y_0uh5-245">
          <mxGeometry width="50" height="50" relative="1" as="geometry">
            <mxPoint x="248" y="195" as="sourcePoint" />
            <mxPoint x="298" y="145" as="targetPoint" />
          </mxGeometry>
        </mxCell>
        <mxCell id="rgN-U1eAydfDt8y_0uh5-292" value="" style="endArrow=none;html=1;rounded=0;entryX=0;entryY=0.25;entryDx=0;entryDy=0;exitX=1;exitY=0.5;exitDx=0;exitDy=0;" edge="1" parent="1" source="rgN-U1eAydfDt8y_0uh5-245" target="rgN-U1eAydfDt8y_0uh5-77">
          <mxGeometry width="50" height="50" relative="1" as="geometry">
            <mxPoint x="208" y="195" as="sourcePoint" />
            <mxPoint x="258" y="145" as="targetPoint" />
          </mxGeometry>
        </mxCell>
        <mxCell id="rgN-U1eAydfDt8y_0uh5-295" value="" style="endArrow=none;html=1;rounded=0;exitX=0.5;exitY=1;exitDx=0;exitDy=0;" edge="1" parent="1" source="rgN-U1eAydfDt8y_0uh5-77">
          <mxGeometry width="50" height="50" relative="1" as="geometry">
            <mxPoint x="668" y="115" as="sourcePoint" />
            <mxPoint x="740" y="300" as="targetPoint" />
          </mxGeometry>
        </mxCell>
        <mxCell id="rgN-U1eAydfDt8y_0uh5-296" value="" style="endArrow=none;html=1;rounded=0;entryX=0;entryY=0.5;entryDx=0;entryDy=0;exitX=1;exitY=0.5;exitDx=0;exitDy=0;" edge="1" parent="1" source="rgN-U1eAydfDt8y_0uh5-77" target="rgN-U1eAydfDt8y_0uh5-29">
          <mxGeometry width="50" height="50" relative="1" as="geometry">
            <mxPoint x="948" y="275" as="sourcePoint" />
            <mxPoint x="998" y="225" as="targetPoint" />
          </mxGeometry>
        </mxCell>
        <mxCell id="rgN-U1eAydfDt8y_0uh5-297" value="" style="endArrow=none;html=1;rounded=0;entryX=0;entryY=0;entryDx=0;entryDy=0;exitX=0.5;exitY=1;exitDx=0;exitDy=0;" edge="1" parent="1" source="rgN-U1eAydfDt8y_0uh5-77" target="rgN-U1eAydfDt8y_0uh5-49">
          <mxGeometry width="50" height="50" relative="1" as="geometry">
            <mxPoint x="488" y="25" as="sourcePoint" />
            <mxPoint x="538" y="-25" as="targetPoint" />
          </mxGeometry>
        </mxCell>
        <mxCell id="rgN-U1eAydfDt8y_0uh5-298" value="" style="endArrow=none;html=1;rounded=0;entryX=0;entryY=0.5;entryDx=0;entryDy=0;exitX=0.5;exitY=1;exitDx=0;exitDy=0;" edge="1" parent="1" source="rgN-U1eAydfDt8y_0uh5-245" target="rgN-U1eAydfDt8y_0uh5-95">
          <mxGeometry width="50" height="50" relative="1" as="geometry">
            <mxPoint x="378" y="505" as="sourcePoint" />
            <mxPoint x="428" y="455" as="targetPoint" />
          </mxGeometry>
        </mxCell>
        <mxCell id="rgN-U1eAydfDt8y_0uh5-300" value="" style="endArrow=none;html=1;rounded=0;entryX=0.5;entryY=1;entryDx=0;entryDy=0;exitX=0.5;exitY=0;exitDx=0;exitDy=0;" edge="1" parent="1" source="rgN-U1eAydfDt8y_0uh5-111" target="rgN-U1eAydfDt8y_0uh5-95">
          <mxGeometry width="50" height="50" relative="1" as="geometry">
            <mxPoint x="738" y="625" as="sourcePoint" />
            <mxPoint x="788" y="575" as="targetPoint" />
          </mxGeometry>
        </mxCell>
        <mxCell id="rgN-U1eAydfDt8y_0uh5-301" value="" style="endArrow=none;html=1;rounded=0;entryX=1;entryY=1;entryDx=0;entryDy=0;exitX=0.5;exitY=0;exitDx=0;exitDy=0;" edge="1" parent="1" source="rgN-U1eAydfDt8y_0uh5-136" target="rgN-U1eAydfDt8y_0uh5-77">
          <mxGeometry width="50" height="50" relative="1" as="geometry">
            <mxPoint x="978" y="295" as="sourcePoint" />
            <mxPoint x="1028" y="245" as="targetPoint" />
          </mxGeometry>
        </mxCell>
        <mxCell id="rgN-U1eAydfDt8y_0uh5-302" value="" style="endArrow=none;html=1;rounded=0;entryX=0;entryY=0.5;entryDx=0;entryDy=0;exitX=1;exitY=0.5;exitDx=0;exitDy=0;" edge="1" parent="1" source="rgN-U1eAydfDt8y_0uh5-95" target="rgN-U1eAydfDt8y_0uh5-136">
          <mxGeometry width="50" height="50" relative="1" as="geometry">
            <mxPoint x="898" y="335" as="sourcePoint" />
            <mxPoint x="1058" y="115" as="targetPoint" />
          </mxGeometry>
        </mxCell>
        <mxCell id="rgN-U1eAydfDt8y_0uh5-303" value="" style="endArrow=none;html=1;rounded=0;entryX=0;entryY=0.5;entryDx=0;entryDy=0;exitX=0.5;exitY=1;exitDx=0;exitDy=0;" edge="1" parent="1" source="rgN-U1eAydfDt8y_0uh5-105" target="rgN-U1eAydfDt8y_0uh5-136">
          <mxGeometry width="50" height="50" relative="1" as="geometry">
            <mxPoint x="1008" y="315" as="sourcePoint" />
            <mxPoint x="1058" y="135" as="targetPoint" />
          </mxGeometry>
        </mxCell>
        <mxCell id="rgN-U1eAydfDt8y_0uh5-304" value="" style="endArrow=none;html=1;rounded=0;entryX=0.5;entryY=0;entryDx=0;entryDy=0;exitX=0.25;exitY=0;exitDx=0;exitDy=0;" edge="1" parent="1" source="rgN-U1eAydfDt8y_0uh5-190" target="rgN-U1eAydfDt8y_0uh5-267">
          <mxGeometry width="50" height="50" relative="1" as="geometry">
            <mxPoint x="1268" y="215" as="sourcePoint" />
            <mxPoint x="1318" y="165" as="targetPoint" />
          </mxGeometry>
        </mxCell>
        <mxCell id="rgN-U1eAydfDt8y_0uh5-305" value="" style="endArrow=none;html=1;rounded=0;entryX=0;entryY=0.5;entryDx=0;entryDy=0;exitX=1;exitY=0.5;exitDx=0;exitDy=0;" edge="1" parent="1" source="rgN-U1eAydfDt8y_0uh5-190" target="rgN-U1eAydfDt8y_0uh5-43">
          <mxGeometry width="50" height="50" relative="1" as="geometry">
            <mxPoint x="1438" y="325" as="sourcePoint" />
            <mxPoint x="1638" y="445" as="targetPoint" />
          </mxGeometry>
        </mxCell>
        <mxCell id="rgN-U1eAydfDt8y_0uh5-306" value="" style="endArrow=none;html=1;rounded=0;entryX=1;entryY=0.5;entryDx=0;entryDy=0;exitX=0.5;exitY=1;exitDx=0;exitDy=0;" edge="1" parent="1" source="rgN-U1eAydfDt8y_0uh5-105" target="rgN-U1eAydfDt8y_0uh5-190">
          <mxGeometry width="50" height="50" relative="1" as="geometry">
            <mxPoint x="1098" y="535" as="sourcePoint" />
            <mxPoint x="1148" y="485" as="targetPoint" />
          </mxGeometry>
        </mxCell>
        <mxCell id="rgN-U1eAydfDt8y_0uh5-307" value="" style="endArrow=none;html=1;rounded=0;entryX=0.5;entryY=0;entryDx=0;entryDy=0;exitX=0.5;exitY=1;exitDx=0;exitDy=0;" edge="1" parent="1" source="rgN-U1eAydfDt8y_0uh5-77" target="rgN-U1eAydfDt8y_0uh5-190">
          <mxGeometry width="50" height="50" relative="1" as="geometry">
            <mxPoint x="718" y="115" as="sourcePoint" />
            <mxPoint x="1318" y="575" as="targetPoint" />
          </mxGeometry>
        </mxCell>
        <mxCell id="rgN-U1eAydfDt8y_0uh5-308" value="" style="endArrow=none;html=1;rounded=0;entryX=1;entryY=1;entryDx=0;entryDy=0;exitX=0;exitY=0.5;exitDx=0;exitDy=0;" edge="1" parent="1" source="rgN-U1eAydfDt8y_0uh5-111" target="rgN-U1eAydfDt8y_0uh5-190">
          <mxGeometry width="50" height="50" relative="1" as="geometry">
            <mxPoint x="1228" y="575" as="sourcePoint" />
            <mxPoint x="1278" y="525" as="targetPoint" />
          </mxGeometry>
        </mxCell>
        <mxCell id="rgN-U1eAydfDt8y_0uh5-309" value="" style="endArrow=none;html=1;rounded=0;entryX=0.75;entryY=1;entryDx=0;entryDy=0;exitX=0.5;exitY=0;exitDx=0;exitDy=0;" edge="1" parent="1" source="rgN-U1eAydfDt8y_0uh5-258" target="rgN-U1eAydfDt8y_0uh5-190">
          <mxGeometry width="50" height="50" relative="1" as="geometry">
            <mxPoint x="1458" y="545" as="sourcePoint" />
            <mxPoint x="1508" y="495" as="targetPoint" />
          </mxGeometry>
        </mxCell>
        <mxCell id="rgN-U1eAydfDt8y_0uh5-310" value="" style="endArrow=none;html=1;rounded=0;entryX=0;entryY=0.5;entryDx=0;entryDy=0;exitX=1;exitY=0.5;exitDx=0;exitDy=0;" edge="1" parent="1" source="rgN-U1eAydfDt8y_0uh5-258" target="rgN-U1eAydfDt8y_0uh5-231">
          <mxGeometry width="50" height="50" relative="1" as="geometry">
            <mxPoint x="1508" y="605" as="sourcePoint" />
            <mxPoint x="1558" y="555" as="targetPoint" />
          </mxGeometry>
        </mxCell>
        <mxCell id="rgN-U1eAydfDt8y_0uh5-311" value="" style="endArrow=none;html=1;rounded=0;entryX=0.858;entryY=1.017;entryDx=0;entryDy=0;entryPerimeter=0;exitX=0;exitY=0;exitDx=0;exitDy=0;" edge="1" parent="1" source="rgN-U1eAydfDt8y_0uh5-231" target="rgN-U1eAydfDt8y_0uh5-190">
          <mxGeometry width="50" height="50" relative="1" as="geometry">
            <mxPoint x="1528" y="565" as="sourcePoint" />
            <mxPoint x="1578" y="515" as="targetPoint" />
          </mxGeometry>
        </mxCell>
        <mxCell id="rgN-U1eAydfDt8y_0uh5-312" value="" style="endArrow=none;html=1;rounded=0;entryX=0.5;entryY=1;entryDx=0;entryDy=0;exitX=0.5;exitY=0;exitDx=0;exitDy=0;" edge="1" parent="1" source="rgN-U1eAydfDt8y_0uh5-190" target="rgN-U1eAydfDt8y_0uh5-245">
          <mxGeometry width="50" height="50" relative="1" as="geometry">
            <mxPoint x="1128" y="335" as="sourcePoint" />
            <mxPoint x="238" y="105" as="targetPoint" />
          </mxGeometry>
        </mxCell>
        <mxCell id="rgN-U1eAydfDt8y_0uh5-313" value="" style="endArrow=none;html=1;rounded=0;exitX=0.5;exitY=1;exitDx=0;exitDy=0;entryX=0.5;entryY=0;entryDx=0;entryDy=0;" edge="1" parent="1" source="rgN-U1eAydfDt8y_0uh5-218" target="rgN-U1eAydfDt8y_0uh5-190">
          <mxGeometry width="50" height="50" relative="1" as="geometry">
            <mxPoint x="468" y="345" as="sourcePoint" />
            <mxPoint x="1368" y="485" as="targetPoint" />
          </mxGeometry>
        </mxCell>
        <mxCell id="rgN-U1eAydfDt8y_0uh5-190" value="Замовлення" style="rounded=0;whiteSpace=wrap;html=1;" vertex="1" parent="1">
          <mxGeometry x="138" y="520" width="120" height="20" as="geometry" />
        </mxCell>
        <mxCell id="rgN-U1eAydfDt8y_0uh5-191" value="дата завершення" style="ellipse;whiteSpace=wrap;html=1;" vertex="1" parent="1">
          <mxGeometry x="324" y="480" width="80" height="30" as="geometry" />
        </mxCell>
        <mxCell id="rgN-U1eAydfDt8y_0uh5-192" value="дата створення" style="ellipse;whiteSpace=wrap;html=1;" vertex="1" parent="1">
          <mxGeometry x="257" y="450" width="80" height="30" as="geometry" />
        </mxCell>
        <mxCell id="rgN-U1eAydfDt8y_0uh5-193" value="" style="endArrow=none;html=1;rounded=0;entryX=0.5;entryY=1;entryDx=0;entryDy=0;exitX=1;exitY=0;exitDx=0;exitDy=0;" edge="1" parent="1" source="rgN-U1eAydfDt8y_0uh5-190" target="rgN-U1eAydfDt8y_0uh5-192">
          <mxGeometry width="50" height="50" relative="1" as="geometry">
            <mxPoint x="298" y="570" as="sourcePoint" />
            <mxPoint x="348" y="520" as="targetPoint" />
          </mxGeometry>
        </mxCell>
        <mxCell id="rgN-U1eAydfDt8y_0uh5-194" value="" style="endArrow=none;html=1;rounded=0;exitX=0.5;exitY=0;exitDx=0;exitDy=0;entryX=0.5;entryY=1;entryDx=0;entryDy=0;" edge="1" parent="1" source="rgN-U1eAydfDt8y_0uh5-190" target="rgN-U1eAydfDt8y_0uh5-195">
          <mxGeometry width="50" height="50" relative="1" as="geometry">
            <mxPoint x="197.92000000000007" y="510" as="sourcePoint" />
            <mxPoint x="208" y="510" as="targetPoint" />
          </mxGeometry>
        </mxCell>
        <mxCell id="rgN-U1eAydfDt8y_0uh5-195" value="&lt;p&gt;ідентифікатор замовлення&lt;/p&gt;" style="ellipse;whiteSpace=wrap;html=1;" vertex="1" parent="1">
          <mxGeometry x="140" y="440" width="100" height="50" as="geometry" />
        </mxCell>
        <mxCell id="rgN-U1eAydfDt8y_0uh5-196" value="&lt;u&gt;сервіс&lt;/u&gt;" style="ellipse;whiteSpace=wrap;html=1;" vertex="1" parent="1">
          <mxGeometry x="257" y="569.5" width="80" height="35" as="geometry" />
        </mxCell>
        <mxCell id="rgN-U1eAydfDt8y_0uh5-197" value="&lt;u&gt;чат&lt;/u&gt;" style="ellipse;whiteSpace=wrap;html=1;" vertex="1" parent="1">
          <mxGeometry y="480" width="80" height="30" as="geometry" />
        </mxCell>
        <mxCell id="rgN-U1eAydfDt8y_0uh5-199" value="" style="endArrow=none;html=1;rounded=0;entryX=0.5;entryY=1;entryDx=0;entryDy=0;exitX=0;exitY=0;exitDx=0;exitDy=0;" edge="1" parent="1" source="rgN-U1eAydfDt8y_0uh5-190" target="rgN-U1eAydfDt8y_0uh5-217">
          <mxGeometry width="50" height="50" relative="1" as="geometry">
            <mxPoint x="268" y="530" as="sourcePoint" />
            <mxPoint x="90" y="480" as="targetPoint" />
          </mxGeometry>
        </mxCell>
        <mxCell id="rgN-U1eAydfDt8y_0uh5-200" value="фрілансер" style="ellipse;whiteSpace=wrap;html=1;fontStyle=4" vertex="1" parent="1">
          <mxGeometry y="515" width="80" height="30" as="geometry" />
        </mxCell>
        <mxCell id="rgN-U1eAydfDt8y_0uh5-201" value="клієнт" style="ellipse;whiteSpace=wrap;html=1;fontStyle=4" vertex="1" parent="1">
          <mxGeometry y="550" width="80" height="30" as="geometry" />
        </mxCell>
        <mxCell id="rgN-U1eAydfDt8y_0uh5-202" value="&lt;u&gt;відгук&lt;/u&gt;" style="ellipse;whiteSpace=wrap;html=1;" vertex="1" parent="1">
          <mxGeometry x="60" y="574.5" width="80" height="30" as="geometry" />
        </mxCell>
        <mxCell id="rgN-U1eAydfDt8y_0uh5-203" value="&lt;u&gt;статус&lt;/u&gt;" style="ellipse;whiteSpace=wrap;html=1;" vertex="1" parent="1">
          <mxGeometry x="324" y="515" width="80" height="30" as="geometry" />
        </mxCell>
        <mxCell id="rgN-U1eAydfDt8y_0uh5-205" value="повідомлення клієнта" style="ellipse;whiteSpace=wrap;html=1;" vertex="1" parent="1">
          <mxGeometry x="152" y="569.5" width="92" height="45.5" as="geometry" />
        </mxCell>
        <mxCell id="rgN-U1eAydfDt8y_0uh5-206" value="&lt;u&gt;пакет сервісу&lt;br&gt;&lt;/u&gt;" style="ellipse;whiteSpace=wrap;html=1;" vertex="1" parent="1">
          <mxGeometry x="324" y="550" width="80" height="30" as="geometry" />
        </mxCell>
        <mxCell id="rgN-U1eAydfDt8y_0uh5-207" value="" style="endArrow=none;html=1;rounded=0;entryX=1;entryY=0.5;entryDx=0;entryDy=0;exitX=0;exitY=0.5;exitDx=0;exitDy=0;" edge="1" parent="1" source="rgN-U1eAydfDt8y_0uh5-190" target="rgN-U1eAydfDt8y_0uh5-200">
          <mxGeometry width="50" height="50" relative="1" as="geometry">
            <mxPoint x="118" y="530" as="sourcePoint" />
            <mxPoint x="136" y="486" as="targetPoint" />
          </mxGeometry>
        </mxCell>
        <mxCell id="rgN-U1eAydfDt8y_0uh5-208" value="" style="endArrow=none;html=1;rounded=0;entryX=0;entryY=0.5;entryDx=0;entryDy=0;exitX=1;exitY=0.5;exitDx=0;exitDy=0;" edge="1" parent="1" source="rgN-U1eAydfDt8y_0uh5-190" target="rgN-U1eAydfDt8y_0uh5-203">
          <mxGeometry width="50" height="50" relative="1" as="geometry">
            <mxPoint x="268" y="530" as="sourcePoint" />
            <mxPoint x="280" y="486" as="targetPoint" />
          </mxGeometry>
        </mxCell>
        <mxCell id="rgN-U1eAydfDt8y_0uh5-209" value="" style="endArrow=none;html=1;rounded=0;entryX=0;entryY=0.5;entryDx=0;entryDy=0;exitX=1;exitY=0.25;exitDx=0;exitDy=0;" edge="1" parent="1" source="rgN-U1eAydfDt8y_0uh5-190" target="rgN-U1eAydfDt8y_0uh5-191">
          <mxGeometry width="50" height="50" relative="1" as="geometry">
            <mxPoint x="268" y="540" as="sourcePoint" />
            <mxPoint x="368" y="540" as="targetPoint" />
          </mxGeometry>
        </mxCell>
        <mxCell id="rgN-U1eAydfDt8y_0uh5-210" value="" style="endArrow=none;html=1;rounded=0;entryX=0;entryY=0.5;entryDx=0;entryDy=0;exitX=1;exitY=0.75;exitDx=0;exitDy=0;" edge="1" parent="1" source="rgN-U1eAydfDt8y_0uh5-190" target="rgN-U1eAydfDt8y_0uh5-206">
          <mxGeometry width="50" height="50" relative="1" as="geometry">
            <mxPoint x="268" y="535" as="sourcePoint" />
            <mxPoint x="380" y="516" as="targetPoint" />
          </mxGeometry>
        </mxCell>
        <mxCell id="rgN-U1eAydfDt8y_0uh5-211" value="" style="endArrow=none;html=1;rounded=0;entryX=0.5;entryY=0;entryDx=0;entryDy=0;exitX=1;exitY=1;exitDx=0;exitDy=0;" edge="1" parent="1" source="rgN-U1eAydfDt8y_0uh5-190" target="rgN-U1eAydfDt8y_0uh5-196">
          <mxGeometry width="50" height="50" relative="1" as="geometry">
            <mxPoint x="268" y="545" as="sourcePoint" />
            <mxPoint x="368" y="575" as="targetPoint" />
          </mxGeometry>
        </mxCell>
        <mxCell id="rgN-U1eAydfDt8y_0uh5-212" value="" style="endArrow=none;html=1;rounded=0;entryX=1;entryY=0.5;entryDx=0;entryDy=0;exitX=0;exitY=0.25;exitDx=0;exitDy=0;" edge="1" parent="1" source="rgN-U1eAydfDt8y_0uh5-190" target="rgN-U1eAydfDt8y_0uh5-197">
          <mxGeometry width="50" height="50" relative="1" as="geometry">
            <mxPoint x="128" y="520" as="sourcePoint" />
            <mxPoint x="136" y="486" as="targetPoint" />
          </mxGeometry>
        </mxCell>
        <mxCell id="rgN-U1eAydfDt8y_0uh5-213" value="" style="endArrow=none;html=1;rounded=0;entryX=1;entryY=0.5;entryDx=0;entryDy=0;exitX=0;exitY=0.75;exitDx=0;exitDy=0;" edge="1" parent="1" source="rgN-U1eAydfDt8y_0uh5-190" target="rgN-U1eAydfDt8y_0uh5-201">
          <mxGeometry width="50" height="50" relative="1" as="geometry">
            <mxPoint x="148" y="540" as="sourcePoint" />
            <mxPoint x="68" y="540" as="targetPoint" />
          </mxGeometry>
        </mxCell>
        <mxCell id="rgN-U1eAydfDt8y_0uh5-214" value="" style="endArrow=none;html=1;rounded=0;entryX=0.5;entryY=0;entryDx=0;entryDy=0;exitX=0;exitY=1;exitDx=0;exitDy=0;" edge="1" parent="1" source="rgN-U1eAydfDt8y_0uh5-190" target="rgN-U1eAydfDt8y_0uh5-202">
          <mxGeometry width="50" height="50" relative="1" as="geometry">
            <mxPoint x="148" y="545" as="sourcePoint" />
            <mxPoint x="68" y="575" as="targetPoint" />
          </mxGeometry>
        </mxCell>
        <mxCell id="rgN-U1eAydfDt8y_0uh5-215" value="" style="endArrow=none;html=1;rounded=0;exitX=0.5;exitY=0;exitDx=0;exitDy=0;entryX=0.5;entryY=1;entryDx=0;entryDy=0;" edge="1" parent="1" source="rgN-U1eAydfDt8y_0uh5-205" target="rgN-U1eAydfDt8y_0uh5-190">
          <mxGeometry width="50" height="50" relative="1" as="geometry">
            <mxPoint x="208" y="530" as="sourcePoint" />
            <mxPoint x="170" y="550" as="targetPoint" />
          </mxGeometry>
        </mxCell>
        <mxCell id="rgN-U1eAydfDt8y_0uh5-217" value="&lt;u&gt;платіж&lt;/u&gt;" style="ellipse;whiteSpace=wrap;html=1;" vertex="1" parent="1">
          <mxGeometry x="60" y="450" width="80" height="30" as="geometry" />
        </mxCell>
        <mxCell id="rgN-U1eAydfDt8y_0uh5-231" value="Відповіді на запитання замовлення " style="rounded=0;whiteSpace=wrap;html=1;" vertex="1" parent="1">
          <mxGeometry x="802" y="727" width="132" height="30" as="geometry" />
        </mxCell>
        <mxCell id="rgN-U1eAydfDt8y_0uh5-233" value="&lt;u&gt;запитання&lt;/u&gt;" style="ellipse;whiteSpace=wrap;html=1;" vertex="1" parent="1">
          <mxGeometry x="871" y="677" width="80" height="30" as="geometry" />
        </mxCell>
        <mxCell id="rgN-U1eAydfDt8y_0uh5-234" value="" style="endArrow=none;html=1;rounded=0;entryX=0.5;entryY=1;entryDx=0;entryDy=0;exitX=0.75;exitY=0;exitDx=0;exitDy=0;" edge="1" parent="1" source="rgN-U1eAydfDt8y_0uh5-231" target="rgN-U1eAydfDt8y_0uh5-233">
          <mxGeometry width="50" height="50" relative="1" as="geometry">
            <mxPoint x="962" y="777" as="sourcePoint" />
            <mxPoint x="1012" y="727" as="targetPoint" />
          </mxGeometry>
        </mxCell>
        <mxCell id="rgN-U1eAydfDt8y_0uh5-237" value="" style="endArrow=none;html=1;rounded=0;exitX=0.75;exitY=1;exitDx=0;exitDy=0;entryX=0.5;entryY=0;entryDx=0;entryDy=0;" edge="1" parent="1" source="rgN-U1eAydfDt8y_0uh5-231" target="rgN-U1eAydfDt8y_0uh5-238">
          <mxGeometry width="50" height="50" relative="1" as="geometry">
            <mxPoint x="861.9200000000001" y="717" as="sourcePoint" />
            <mxPoint x="872" y="717" as="targetPoint" />
          </mxGeometry>
        </mxCell>
        <mxCell id="rgN-U1eAydfDt8y_0uh5-238" value="ідентифікатор відповіді на запитання" style="ellipse;whiteSpace=wrap;html=1;" vertex="1" parent="1">
          <mxGeometry x="866" y="767" width="114" height="60" as="geometry" />
        </mxCell>
        <mxCell id="rgN-U1eAydfDt8y_0uh5-240" value="&lt;u&gt;замовлення&lt;/u&gt;" style="ellipse;whiteSpace=wrap;html=1;" vertex="1" parent="1">
          <mxGeometry x="774" y="777" width="80" height="30" as="geometry" />
        </mxCell>
        <mxCell id="rgN-U1eAydfDt8y_0uh5-241" value="вміст" style="ellipse;whiteSpace=wrap;html=1;" vertex="1" parent="1">
          <mxGeometry x="786" y="677" width="80" height="30" as="geometry" />
        </mxCell>
        <mxCell id="rgN-U1eAydfDt8y_0uh5-242" value="" style="endArrow=none;html=1;rounded=0;entryX=0.5;entryY=1;entryDx=0;entryDy=0;exitX=0.25;exitY=0;exitDx=0;exitDy=0;" edge="1" parent="1" source="rgN-U1eAydfDt8y_0uh5-231" target="rgN-U1eAydfDt8y_0uh5-241">
          <mxGeometry width="50" height="50" relative="1" as="geometry">
            <mxPoint x="932" y="737" as="sourcePoint" />
            <mxPoint x="944" y="733" as="targetPoint" />
          </mxGeometry>
        </mxCell>
        <mxCell id="rgN-U1eAydfDt8y_0uh5-243" value="" style="endArrow=none;html=1;rounded=0;entryX=0.5;entryY=0;entryDx=0;entryDy=0;exitX=0.25;exitY=1;exitDx=0;exitDy=0;" edge="1" parent="1" source="rgN-U1eAydfDt8y_0uh5-231" target="rgN-U1eAydfDt8y_0uh5-240">
          <mxGeometry width="50" height="50" relative="1" as="geometry">
            <mxPoint x="812" y="737" as="sourcePoint" />
            <mxPoint x="800" y="733" as="targetPoint" />
          </mxGeometry>
        </mxCell>
        <mxCell id="rgN-U1eAydfDt8y_0uh5-258" value="Запитання на замовлення" style="rounded=0;whiteSpace=wrap;html=1;" vertex="1" parent="1">
          <mxGeometry x="378" y="737" width="132" height="30" as="geometry" />
        </mxCell>
        <mxCell id="rgN-U1eAydfDt8y_0uh5-261" value="" style="endArrow=none;html=1;rounded=0;exitX=0.75;exitY=1;exitDx=0;exitDy=0;entryX=0.5;entryY=0;entryDx=0;entryDy=0;" edge="1" parent="1" source="rgN-U1eAydfDt8y_0uh5-258" target="rgN-U1eAydfDt8y_0uh5-284">
          <mxGeometry width="50" height="50" relative="1" as="geometry">
            <mxPoint x="437.9200000000001" y="727" as="sourcePoint" />
            <mxPoint x="499" y="777" as="targetPoint" />
          </mxGeometry>
        </mxCell>
        <mxCell id="rgN-U1eAydfDt8y_0uh5-263" value="&lt;u&gt;замовлення&lt;/u&gt;" style="ellipse;whiteSpace=wrap;html=1;" vertex="1" parent="1">
          <mxGeometry x="360" y="787" width="80" height="30" as="geometry" />
        </mxCell>
        <mxCell id="rgN-U1eAydfDt8y_0uh5-264" value="ідентифікатор запитання" style="ellipse;whiteSpace=wrap;html=1;" vertex="1" parent="1">
          <mxGeometry x="392" y="677" width="104" height="50" as="geometry" />
        </mxCell>
        <mxCell id="rgN-U1eAydfDt8y_0uh5-265" value="" style="endArrow=none;html=1;rounded=0;entryX=0.5;entryY=1;entryDx=0;entryDy=0;exitX=0.5;exitY=0;exitDx=0;exitDy=0;" edge="1" parent="1" source="rgN-U1eAydfDt8y_0uh5-258" target="rgN-U1eAydfDt8y_0uh5-264">
          <mxGeometry width="50" height="50" relative="1" as="geometry">
            <mxPoint x="508" y="747" as="sourcePoint" />
            <mxPoint x="520" y="743" as="targetPoint" />
          </mxGeometry>
        </mxCell>
        <mxCell id="rgN-U1eAydfDt8y_0uh5-266" value="" style="endArrow=none;html=1;rounded=0;entryX=0.5;entryY=0;entryDx=0;entryDy=0;exitX=0.25;exitY=1;exitDx=0;exitDy=0;" edge="1" parent="1" source="rgN-U1eAydfDt8y_0uh5-258" target="rgN-U1eAydfDt8y_0uh5-263">
          <mxGeometry width="50" height="50" relative="1" as="geometry">
            <mxPoint x="388" y="747" as="sourcePoint" />
            <mxPoint x="376" y="743" as="targetPoint" />
          </mxGeometry>
        </mxCell>
        <mxCell id="rgN-U1eAydfDt8y_0uh5-284" value="вміст" style="ellipse;whiteSpace=wrap;html=1;" vertex="1" parent="1">
          <mxGeometry x="450" y="787" width="80" height="30" as="geometry" />
        </mxCell>
        <mxCell id="rgN-U1eAydfDt8y_0uh5-267" value="Платежі" style="rounded=0;whiteSpace=wrap;html=1;" vertex="1" parent="1">
          <mxGeometry x="120" y="750" width="120" height="20" as="geometry" />
        </mxCell>
        <mxCell id="rgN-U1eAydfDt8y_0uh5-268" value="дата закінчення терміну дії картки" style="ellipse;whiteSpace=wrap;html=1;" vertex="1" parent="1">
          <mxGeometry x="190" y="780" width="110" height="50" as="geometry" />
        </mxCell>
        <mxCell id="rgN-U1eAydfDt8y_0uh5-269" value="номер картки" style="ellipse;whiteSpace=wrap;html=1;" vertex="1" parent="1">
          <mxGeometry x="250" y="700" width="80" height="30" as="geometry" />
        </mxCell>
        <mxCell id="rgN-U1eAydfDt8y_0uh5-270" value="" style="endArrow=none;html=1;rounded=0;entryX=0;entryY=1;entryDx=0;entryDy=0;exitX=1;exitY=0;exitDx=0;exitDy=0;" edge="1" parent="1" source="rgN-U1eAydfDt8y_0uh5-267" target="rgN-U1eAydfDt8y_0uh5-269">
          <mxGeometry width="50" height="50" relative="1" as="geometry">
            <mxPoint x="280" y="800" as="sourcePoint" />
            <mxPoint x="330" y="750" as="targetPoint" />
          </mxGeometry>
        </mxCell>
        <mxCell id="rgN-U1eAydfDt8y_0uh5-271" value="" style="endArrow=none;html=1;rounded=0;entryX=0.5;entryY=0;entryDx=0;entryDy=0;exitX=0.75;exitY=1;exitDx=0;exitDy=0;" edge="1" parent="1" source="rgN-U1eAydfDt8y_0uh5-267" target="rgN-U1eAydfDt8y_0uh5-268">
          <mxGeometry width="50" height="50" relative="1" as="geometry">
            <mxPoint x="260" y="790" as="sourcePoint" />
            <mxPoint x="320" y="770" as="targetPoint" />
          </mxGeometry>
        </mxCell>
        <mxCell id="rgN-U1eAydfDt8y_0uh5-272" value="" style="endArrow=none;html=1;rounded=0;entryX=0.5;entryY=0;entryDx=0;entryDy=0;exitX=0.25;exitY=1;exitDx=0;exitDy=0;" edge="1" parent="1" source="rgN-U1eAydfDt8y_0uh5-267" target="rgN-U1eAydfDt8y_0uh5-275">
          <mxGeometry width="50" height="50" relative="1" as="geometry">
            <mxPoint x="220" y="820" as="sourcePoint" />
            <mxPoint x="252" y="834" as="targetPoint" />
          </mxGeometry>
        </mxCell>
        <mxCell id="rgN-U1eAydfDt8y_0uh5-273" value="" style="endArrow=none;html=1;rounded=0;exitX=0.5;exitY=0;exitDx=0;exitDy=0;entryX=0.5;entryY=1;entryDx=0;entryDy=0;" edge="1" parent="1" source="rgN-U1eAydfDt8y_0uh5-267" target="rgN-U1eAydfDt8y_0uh5-274">
          <mxGeometry width="50" height="50" relative="1" as="geometry">
            <mxPoint x="179.92000000000007" y="740" as="sourcePoint" />
            <mxPoint x="190" y="740" as="targetPoint" />
          </mxGeometry>
        </mxCell>
        <mxCell id="rgN-U1eAydfDt8y_0uh5-274" value="&lt;p&gt;ідентифікатор платежу&lt;/p&gt;" style="ellipse;whiteSpace=wrap;html=1;" vertex="1" parent="1">
          <mxGeometry x="130" y="690" width="100" height="50" as="geometry" />
        </mxCell>
        <mxCell id="rgN-U1eAydfDt8y_0uh5-275" value="ім’я власника картки" style="ellipse;whiteSpace=wrap;html=1;" vertex="1" parent="1">
          <mxGeometry x="70" y="780" width="100" height="50" as="geometry" />
        </mxCell>
        <mxCell id="rgN-U1eAydfDt8y_0uh5-276" value="код безпеки" style="ellipse;whiteSpace=wrap;html=1;" vertex="1" parent="1">
          <mxGeometry x="30" y="700" width="90" height="30" as="geometry" />
        </mxCell>
        <mxCell id="rgN-U1eAydfDt8y_0uh5-279" value="" style="endArrow=none;html=1;rounded=0;entryX=1;entryY=1;entryDx=0;entryDy=0;exitX=0;exitY=0;exitDx=0;exitDy=0;" edge="1" parent="1" source="rgN-U1eAydfDt8y_0uh5-267" target="rgN-U1eAydfDt8y_0uh5-276">
          <mxGeometry width="50" height="50" relative="1" as="geometry">
            <mxPoint x="130" y="760" as="sourcePoint" />
            <mxPoint x="118" y="756" as="targetPoint" />
          </mxGeometry>
        </mxCell>
        <mxCell id="rgN-U1eAydfDt8y_0uh5-44" value="назва" style="ellipse;whiteSpace=wrap;html=1;" vertex="1" parent="1">
          <mxGeometry x="523" y="415" width="80" height="30" as="geometry" />
        </mxCell>
        <mxCell id="rgN-U1eAydfDt8y_0uh5-45" value="&lt;p&gt;ідентифікатор статусу&lt;br&gt;&lt;/p&gt;" style="ellipse;whiteSpace=wrap;html=1;" vertex="1" parent="1">
          <mxGeometry x="513" y="325" width="100" height="50" as="geometry" />
        </mxCell>
        <mxCell id="rgN-U1eAydfDt8y_0uh5-46" value="" style="endArrow=none;html=1;rounded=0;entryX=0.5;entryY=0;entryDx=0;entryDy=0;exitX=0.5;exitY=1;exitDx=0;exitDy=0;" edge="1" parent="1" source="rgN-U1eAydfDt8y_0uh5-43" target="rgN-U1eAydfDt8y_0uh5-44">
          <mxGeometry width="50" height="50" relative="1" as="geometry">
            <mxPoint x="571" y="432.5" as="sourcePoint" />
            <mxPoint x="603" y="446.5" as="targetPoint" />
          </mxGeometry>
        </mxCell>
        <mxCell id="rgN-U1eAydfDt8y_0uh5-47" value="" style="endArrow=none;html=1;rounded=0;entryX=0.5;entryY=1;entryDx=0;entryDy=0;exitX=0.5;exitY=0;exitDx=0;exitDy=0;" edge="1" parent="1" source="rgN-U1eAydfDt8y_0uh5-43" target="rgN-U1eAydfDt8y_0uh5-45">
          <mxGeometry width="50" height="50" relative="1" as="geometry">
            <mxPoint x="601" y="372.5" as="sourcePoint" />
            <mxPoint x="661" y="362.5" as="targetPoint" />
          </mxGeometry>
        </mxCell>
        <mxCell id="rgN-U1eAydfDt8y_0uh5-105" value="Чати" style="rounded=0;whiteSpace=wrap;html=1;" vertex="1" parent="1">
          <mxGeometry x="754" y="445" width="120" height="20" as="geometry" />
        </mxCell>
        <mxCell id="rgN-U1eAydfDt8y_0uh5-107" value="&lt;p&gt;ідентифікатор чату&lt;/p&gt;" style="ellipse;whiteSpace=wrap;html=1;" vertex="1" parent="1">
          <mxGeometry x="764" y="385" width="100" height="50" as="geometry" />
        </mxCell>
        <mxCell id="rgN-U1eAydfDt8y_0uh5-109" value="" style="endArrow=none;html=1;rounded=0;entryX=0.5;entryY=1;entryDx=0;entryDy=0;" edge="1" parent="1" source="rgN-U1eAydfDt8y_0uh5-105" target="rgN-U1eAydfDt8y_0uh5-107">
          <mxGeometry width="50" height="50" relative="1" as="geometry">
            <mxPoint x="776" y="415" as="sourcePoint" />
            <mxPoint x="836" y="405" as="targetPoint" />
          </mxGeometry>
        </mxCell>
        <mxCell id="rgN-U1eAydfDt8y_0uh5-111" value="Відгуки" style="rounded=0;whiteSpace=wrap;html=1;" vertex="1" parent="1">
          <mxGeometry x="671" y="592.25" width="120" height="20" as="geometry" />
        </mxCell>
        <mxCell id="rgN-U1eAydfDt8y_0uh5-112" value="оцінка" style="ellipse;whiteSpace=wrap;html=1;" vertex="1" parent="1">
          <mxGeometry x="691" y="622.25" width="80" height="30" as="geometry" />
        </mxCell>
        <mxCell id="rgN-U1eAydfDt8y_0uh5-113" value="&lt;p&gt;ідентифікатор відгуку&lt;/p&gt;" style="ellipse;whiteSpace=wrap;html=1;" vertex="1" parent="1">
          <mxGeometry x="681" y="532.25" width="100" height="50" as="geometry" />
        </mxCell>
        <mxCell id="rgN-U1eAydfDt8y_0uh5-114" value="" style="endArrow=none;html=1;rounded=0;entryX=0.5;entryY=0;entryDx=0;entryDy=0;exitX=0.5;exitY=1;exitDx=0;exitDy=0;" edge="1" parent="1" source="rgN-U1eAydfDt8y_0uh5-111" target="rgN-U1eAydfDt8y_0uh5-112">
          <mxGeometry width="50" height="50" relative="1" as="geometry">
            <mxPoint x="732" y="632.25" as="sourcePoint" />
            <mxPoint x="764" y="646.25" as="targetPoint" />
          </mxGeometry>
        </mxCell>
        <mxCell id="rgN-U1eAydfDt8y_0uh5-115" value="" style="endArrow=none;html=1;rounded=0;entryX=0.5;entryY=1;entryDx=0;entryDy=0;exitX=0.5;exitY=0;exitDx=0;exitDy=0;" edge="1" parent="1" source="rgN-U1eAydfDt8y_0uh5-111" target="rgN-U1eAydfDt8y_0uh5-113">
          <mxGeometry width="50" height="50" relative="1" as="geometry">
            <mxPoint x="762" y="572.25" as="sourcePoint" />
            <mxPoint x="822" y="562.25" as="targetPoint" />
          </mxGeometry>
        </mxCell>
        <mxCell id="rgN-U1eAydfDt8y_0uh5-116" value="вміст" style="ellipse;whiteSpace=wrap;html=1;" vertex="1" parent="1">
          <mxGeometry x="581" y="587.25" width="80" height="30" as="geometry" />
        </mxCell>
        <mxCell id="rgN-U1eAydfDt8y_0uh5-118" value="" style="endArrow=none;html=1;rounded=0;entryX=0;entryY=0.5;entryDx=0;entryDy=0;exitX=1;exitY=0.5;exitDx=0;exitDy=0;" edge="1" parent="1" source="rgN-U1eAydfDt8y_0uh5-116" target="rgN-U1eAydfDt8y_0uh5-111">
          <mxGeometry width="50" height="50" relative="1" as="geometry">
            <mxPoint x="702" y="572.25" as="sourcePoint" />
            <mxPoint x="702" y="562.25" as="targetPoint" />
          </mxGeometry>
        </mxCell>
        <mxCell id="rgN-U1eAydfDt8y_0uh5-136" value="Повідомлення чату" style="rounded=0;whiteSpace=wrap;html=1;" vertex="1" parent="1">
          <mxGeometry x="1030" y="535" width="120" height="20" as="geometry" />
        </mxCell>
        <mxCell id="rgN-U1eAydfDt8y_0uh5-137" value="&lt;u&gt;відправник&lt;/u&gt;" style="ellipse;whiteSpace=wrap;html=1;" vertex="1" parent="1">
          <mxGeometry x="1150" y="555" width="80" height="30" as="geometry" />
        </mxCell>
        <mxCell id="rgN-U1eAydfDt8y_0uh5-138" value="чат" style="ellipse;whiteSpace=wrap;html=1;fontStyle=4" vertex="1" parent="1">
          <mxGeometry x="1150" y="505" width="80" height="30" as="geometry" />
        </mxCell>
        <mxCell id="rgN-U1eAydfDt8y_0uh5-139" value="" style="endArrow=none;html=1;rounded=0;entryX=0;entryY=1;entryDx=0;entryDy=0;exitX=1;exitY=0;exitDx=0;exitDy=0;" edge="1" parent="1" source="rgN-U1eAydfDt8y_0uh5-136" target="rgN-U1eAydfDt8y_0uh5-138">
          <mxGeometry width="50" height="50" relative="1" as="geometry">
            <mxPoint x="1190" y="585" as="sourcePoint" />
            <mxPoint x="1240" y="535" as="targetPoint" />
          </mxGeometry>
        </mxCell>
        <mxCell id="rgN-U1eAydfDt8y_0uh5-140" value="" style="endArrow=none;html=1;rounded=0;entryX=0;entryY=0;entryDx=0;entryDy=0;exitX=1;exitY=1;exitDx=0;exitDy=0;" edge="1" parent="1" source="rgN-U1eAydfDt8y_0uh5-136" target="rgN-U1eAydfDt8y_0uh5-137">
          <mxGeometry width="50" height="50" relative="1" as="geometry">
            <mxPoint x="1170" y="575" as="sourcePoint" />
            <mxPoint x="1230" y="555" as="targetPoint" />
          </mxGeometry>
        </mxCell>
        <mxCell id="rgN-U1eAydfDt8y_0uh5-141" value="" style="endArrow=none;html=1;rounded=0;entryX=0.5;entryY=0;entryDx=0;entryDy=0;exitX=0.5;exitY=1;exitDx=0;exitDy=0;" edge="1" parent="1" source="rgN-U1eAydfDt8y_0uh5-136" target="rgN-U1eAydfDt8y_0uh5-144">
          <mxGeometry width="50" height="50" relative="1" as="geometry">
            <mxPoint x="1130" y="605" as="sourcePoint" />
            <mxPoint x="1162" y="619" as="targetPoint" />
          </mxGeometry>
        </mxCell>
        <mxCell id="rgN-U1eAydfDt8y_0uh5-142" value="" style="endArrow=none;html=1;rounded=0;exitX=0.5;exitY=0;exitDx=0;exitDy=0;entryX=0.5;entryY=1;entryDx=0;entryDy=0;" edge="1" parent="1" source="rgN-U1eAydfDt8y_0uh5-136" target="rgN-U1eAydfDt8y_0uh5-143">
          <mxGeometry width="50" height="50" relative="1" as="geometry">
            <mxPoint x="1089.92" y="525" as="sourcePoint" />
            <mxPoint x="1100" y="525" as="targetPoint" />
          </mxGeometry>
        </mxCell>
        <mxCell id="rgN-U1eAydfDt8y_0uh5-143" value="ідентифікатор повідомлення чату" style="ellipse;whiteSpace=wrap;html=1;" vertex="1" parent="1">
          <mxGeometry x="1035" y="465" width="110" height="60" as="geometry" />
        </mxCell>
        <mxCell id="rgN-U1eAydfDt8y_0uh5-144" value="вміст" style="ellipse;whiteSpace=wrap;html=1;" vertex="1" parent="1">
          <mxGeometry x="1050" y="565" width="80" height="30" as="geometry" />
        </mxCell>
        <mxCell id="rgN-U1eAydfDt8y_0uh5-145" value="дата і час відправлення" style="ellipse;whiteSpace=wrap;html=1;" vertex="1" parent="1">
          <mxGeometry x="930" y="525" width="90" height="40" as="geometry" />
        </mxCell>
        <mxCell id="rgN-U1eAydfDt8y_0uh5-148" value="" style="endArrow=none;html=1;rounded=0;entryX=1;entryY=0.5;entryDx=0;entryDy=0;exitX=0;exitY=0.5;exitDx=0;exitDy=0;" edge="1" parent="1" source="rgN-U1eAydfDt8y_0uh5-136" target="rgN-U1eAydfDt8y_0uh5-145">
          <mxGeometry width="50" height="50" relative="1" as="geometry">
            <mxPoint x="1040" y="545" as="sourcePoint" />
            <mxPoint x="1028" y="541" as="targetPoint" />
          </mxGeometry>
        </mxCell>
        <mxCell id="rgN-U1eAydfDt8y_0uh5-49" value="Мови" style="rounded=0;whiteSpace=wrap;html=1;" vertex="1" parent="1">
          <mxGeometry x="1120" y="362.5" width="120" height="20" as="geometry" />
        </mxCell>
        <mxCell id="rgN-U1eAydfDt8y_0uh5-50" value="назва" style="ellipse;whiteSpace=wrap;html=1;" vertex="1" parent="1">
          <mxGeometry x="1140" y="392.5" width="80" height="30" as="geometry" />
        </mxCell>
        <mxCell id="rgN-U1eAydfDt8y_0uh5-51" value="&lt;p&gt;ідентифікатор мови&lt;/p&gt;" style="ellipse;whiteSpace=wrap;html=1;" vertex="1" parent="1">
          <mxGeometry x="1130" y="302.5" width="100" height="50" as="geometry" />
        </mxCell>
        <mxCell id="rgN-U1eAydfDt8y_0uh5-52" value="" style="endArrow=none;html=1;rounded=0;entryX=0.5;entryY=0;entryDx=0;entryDy=0;exitX=0.5;exitY=1;exitDx=0;exitDy=0;" edge="1" parent="1" source="rgN-U1eAydfDt8y_0uh5-49" target="rgN-U1eAydfDt8y_0uh5-50">
          <mxGeometry width="50" height="50" relative="1" as="geometry">
            <mxPoint x="1220" y="432.5" as="sourcePoint" />
            <mxPoint x="1252" y="446.5" as="targetPoint" />
          </mxGeometry>
        </mxCell>
        <mxCell id="rgN-U1eAydfDt8y_0uh5-53" value="" style="endArrow=none;html=1;rounded=0;entryX=0.5;entryY=1;entryDx=0;entryDy=0;exitX=0.5;exitY=0;exitDx=0;exitDy=0;" edge="1" parent="1" source="rgN-U1eAydfDt8y_0uh5-49" target="rgN-U1eAydfDt8y_0uh5-51">
          <mxGeometry width="50" height="50" relative="1" as="geometry">
            <mxPoint x="1250" y="372.5" as="sourcePoint" />
            <mxPoint x="1310" y="362.5" as="targetPoint" />
          </mxGeometry>
        </mxCell>
        <mxCell id="rgN-U1eAydfDt8y_0uh5-285" value="Ролі" style="rounded=0;whiteSpace=wrap;html=1;" vertex="1" parent="1">
          <mxGeometry x="1120" y="212.5" width="120" height="20" as="geometry" />
        </mxCell>
        <mxCell id="rgN-U1eAydfDt8y_0uh5-286" value="назва" style="ellipse;whiteSpace=wrap;html=1;" vertex="1" parent="1">
          <mxGeometry x="1140" y="242.5" width="80" height="30" as="geometry" />
        </mxCell>
        <mxCell id="rgN-U1eAydfDt8y_0uh5-287" value="&lt;p&gt;ідентифікатор ролі&lt;/p&gt;" style="ellipse;whiteSpace=wrap;html=1;" vertex="1" parent="1">
          <mxGeometry x="1130" y="152.5" width="100" height="50" as="geometry" />
        </mxCell>
        <mxCell id="rgN-U1eAydfDt8y_0uh5-288" value="" style="endArrow=none;html=1;rounded=0;entryX=0.5;entryY=0;entryDx=0;entryDy=0;exitX=0.5;exitY=1;exitDx=0;exitDy=0;" edge="1" parent="1" source="rgN-U1eAydfDt8y_0uh5-285" target="rgN-U1eAydfDt8y_0uh5-286">
          <mxGeometry width="50" height="50" relative="1" as="geometry">
            <mxPoint x="1220" y="282.5" as="sourcePoint" />
            <mxPoint x="1252" y="296.5" as="targetPoint" />
          </mxGeometry>
        </mxCell>
        <mxCell id="rgN-U1eAydfDt8y_0uh5-289" value="" style="endArrow=none;html=1;rounded=0;entryX=0.5;entryY=1;entryDx=0;entryDy=0;exitX=0.5;exitY=0;exitDx=0;exitDy=0;" edge="1" parent="1" source="rgN-U1eAydfDt8y_0uh5-285" target="rgN-U1eAydfDt8y_0uh5-287">
          <mxGeometry width="50" height="50" relative="1" as="geometry">
            <mxPoint x="1250" y="222.5" as="sourcePoint" />
            <mxPoint x="1310" y="212.5" as="targetPoint" />
          </mxGeometry>
        </mxCell>
        <mxCell id="rgN-U1eAydfDt8y_0uh5-77" value="Користувачі" style="rounded=0;whiteSpace=wrap;html=1;" vertex="1" parent="1">
          <mxGeometry x="683" y="82.5" width="120" height="20" as="geometry" />
        </mxCell>
        <mxCell id="rgN-U1eAydfDt8y_0uh5-78" value="дата реєстраії" style="ellipse;whiteSpace=wrap;html=1;" vertex="1" parent="1">
          <mxGeometry x="867" y="42.5" width="80" height="30" as="geometry" />
        </mxCell>
        <mxCell id="rgN-U1eAydfDt8y_0uh5-79" value="про себе" style="ellipse;whiteSpace=wrap;html=1;" vertex="1" parent="1">
          <mxGeometry x="800" y="12.5" width="80" height="30" as="geometry" />
        </mxCell>
        <mxCell id="rgN-U1eAydfDt8y_0uh5-80" value="" style="endArrow=none;html=1;rounded=0;entryX=0.5;entryY=1;entryDx=0;entryDy=0;exitX=1;exitY=0;exitDx=0;exitDy=0;" edge="1" parent="1" source="rgN-U1eAydfDt8y_0uh5-77" target="rgN-U1eAydfDt8y_0uh5-79">
          <mxGeometry width="50" height="50" relative="1" as="geometry">
            <mxPoint x="841" y="132.5" as="sourcePoint" />
            <mxPoint x="891" y="82.5" as="targetPoint" />
          </mxGeometry>
        </mxCell>
        <mxCell id="rgN-U1eAydfDt8y_0uh5-83" value="" style="endArrow=none;html=1;rounded=0;exitX=0.5;exitY=0;exitDx=0;exitDy=0;entryX=0.5;entryY=1;entryDx=0;entryDy=0;" edge="1" parent="1" source="rgN-U1eAydfDt8y_0uh5-77" target="rgN-U1eAydfDt8y_0uh5-84">
          <mxGeometry width="50" height="50" relative="1" as="geometry">
            <mxPoint x="740.92" y="72.5" as="sourcePoint" />
            <mxPoint x="751" y="72.5" as="targetPoint" />
          </mxGeometry>
        </mxCell>
        <mxCell id="rgN-U1eAydfDt8y_0uh5-84" value="&lt;p&gt;ідентифікатор користувача&lt;br&gt;&lt;/p&gt;" style="ellipse;whiteSpace=wrap;html=1;" vertex="1" parent="1">
          <mxGeometry x="691" y="2.5" width="100" height="50" as="geometry" />
        </mxCell>
        <mxCell id="rgN-U1eAydfDt8y_0uh5-85" value="електронна пошта" style="ellipse;whiteSpace=wrap;html=1;" vertex="1" parent="1">
          <mxGeometry x="829" y="150" width="80" height="35" as="geometry" />
        </mxCell>
        <mxCell id="rgN-U1eAydfDt8y_0uh5-86" value="ім’я" style="ellipse;whiteSpace=wrap;html=1;" vertex="1" parent="1">
          <mxGeometry x="543" y="42.5" width="80" height="30" as="geometry" />
        </mxCell>
        <mxCell id="rgN-U1eAydfDt8y_0uh5-87" value="рівень" style="ellipse;whiteSpace=wrap;html=1;" vertex="1" parent="1">
          <mxGeometry x="603" y="12.5" width="80" height="30" as="geometry" />
        </mxCell>
        <mxCell id="rgN-U1eAydfDt8y_0uh5-88" value="" style="endArrow=none;html=1;rounded=0;entryX=0.5;entryY=1;entryDx=0;entryDy=0;exitX=0;exitY=0;exitDx=0;exitDy=0;" edge="1" parent="1" source="rgN-U1eAydfDt8y_0uh5-77" target="rgN-U1eAydfDt8y_0uh5-87">
          <mxGeometry width="50" height="50" relative="1" as="geometry">
            <mxPoint x="811" y="92.5" as="sourcePoint" />
            <mxPoint x="823" y="88.5" as="targetPoint" />
          </mxGeometry>
        </mxCell>
        <mxCell id="rgN-U1eAydfDt8y_0uh5-119" value="роль" style="ellipse;whiteSpace=wrap;html=1;fontStyle=4" vertex="1" parent="1">
          <mxGeometry x="543" y="77.5" width="80" height="30" as="geometry" />
        </mxCell>
        <mxCell id="rgN-U1eAydfDt8y_0uh5-120" value="аватар" style="ellipse;whiteSpace=wrap;html=1;fontStyle=4" vertex="1" parent="1">
          <mxGeometry x="543" y="112.5" width="80" height="30" as="geometry" />
        </mxCell>
        <mxCell id="rgN-U1eAydfDt8y_0uh5-121" value="нікнейм" style="ellipse;whiteSpace=wrap;html=1;" vertex="1" parent="1">
          <mxGeometry x="579" y="152.5" width="80" height="30" as="geometry" />
        </mxCell>
        <mxCell id="rgN-U1eAydfDt8y_0uh5-122" value="прізвище" style="ellipse;whiteSpace=wrap;html=1;" vertex="1" parent="1">
          <mxGeometry x="867" y="77.5" width="80" height="30" as="geometry" />
        </mxCell>
        <mxCell id="rgN-U1eAydfDt8y_0uh5-123" value="публічний ключ" style="ellipse;whiteSpace=wrap;html=1;" vertex="1" parent="1">
          <mxGeometry x="745" y="147.5" width="80" height="40" as="geometry" />
        </mxCell>
        <mxCell id="rgN-U1eAydfDt8y_0uh5-124" value="приватний ключ" style="ellipse;whiteSpace=wrap;html=1;" vertex="1" parent="1">
          <mxGeometry x="662" y="147.5" width="80" height="40" as="geometry" />
        </mxCell>
        <mxCell id="rgN-U1eAydfDt8y_0uh5-125" value="пароль" style="ellipse;whiteSpace=wrap;html=1;" vertex="1" parent="1">
          <mxGeometry x="867" y="112.5" width="80" height="30" as="geometry" />
        </mxCell>
        <mxCell id="rgN-U1eAydfDt8y_0uh5-126" value="" style="endArrow=none;html=1;rounded=0;entryX=1;entryY=0.5;entryDx=0;entryDy=0;exitX=0;exitY=0.5;exitDx=0;exitDy=0;" edge="1" parent="1" source="rgN-U1eAydfDt8y_0uh5-77" target="rgN-U1eAydfDt8y_0uh5-119">
          <mxGeometry width="50" height="50" relative="1" as="geometry">
            <mxPoint x="661" y="92.5" as="sourcePoint" />
            <mxPoint x="679" y="48.5" as="targetPoint" />
          </mxGeometry>
        </mxCell>
        <mxCell id="rgN-U1eAydfDt8y_0uh5-127" value="" style="endArrow=none;html=1;rounded=0;entryX=0;entryY=0.5;entryDx=0;entryDy=0;exitX=1;exitY=0.5;exitDx=0;exitDy=0;" edge="1" parent="1" source="rgN-U1eAydfDt8y_0uh5-77" target="rgN-U1eAydfDt8y_0uh5-122">
          <mxGeometry width="50" height="50" relative="1" as="geometry">
            <mxPoint x="811" y="92.5" as="sourcePoint" />
            <mxPoint x="823" y="48.5" as="targetPoint" />
          </mxGeometry>
        </mxCell>
        <mxCell id="rgN-U1eAydfDt8y_0uh5-128" value="" style="endArrow=none;html=1;rounded=0;entryX=0;entryY=0.5;entryDx=0;entryDy=0;exitX=1;exitY=0.25;exitDx=0;exitDy=0;" edge="1" parent="1" source="rgN-U1eAydfDt8y_0uh5-77" target="rgN-U1eAydfDt8y_0uh5-78">
          <mxGeometry width="50" height="50" relative="1" as="geometry">
            <mxPoint x="811" y="102.5" as="sourcePoint" />
            <mxPoint x="911" y="102.5" as="targetPoint" />
          </mxGeometry>
        </mxCell>
        <mxCell id="rgN-U1eAydfDt8y_0uh5-129" value="" style="endArrow=none;html=1;rounded=0;entryX=0;entryY=0.5;entryDx=0;entryDy=0;exitX=1;exitY=0.75;exitDx=0;exitDy=0;" edge="1" parent="1" source="rgN-U1eAydfDt8y_0uh5-77" target="rgN-U1eAydfDt8y_0uh5-125">
          <mxGeometry width="50" height="50" relative="1" as="geometry">
            <mxPoint x="811" y="97.5" as="sourcePoint" />
            <mxPoint x="923" y="78.5" as="targetPoint" />
          </mxGeometry>
        </mxCell>
        <mxCell id="rgN-U1eAydfDt8y_0uh5-130" value="" style="endArrow=none;html=1;rounded=0;entryX=0.5;entryY=0;entryDx=0;entryDy=0;exitX=1;exitY=1;exitDx=0;exitDy=0;" edge="1" parent="1" source="rgN-U1eAydfDt8y_0uh5-77" target="rgN-U1eAydfDt8y_0uh5-85">
          <mxGeometry width="50" height="50" relative="1" as="geometry">
            <mxPoint x="811" y="107.5" as="sourcePoint" />
            <mxPoint x="911" y="137.5" as="targetPoint" />
          </mxGeometry>
        </mxCell>
        <mxCell id="rgN-U1eAydfDt8y_0uh5-131" value="" style="endArrow=none;html=1;rounded=0;entryX=1;entryY=0.5;entryDx=0;entryDy=0;exitX=0;exitY=0.25;exitDx=0;exitDy=0;" edge="1" parent="1" source="rgN-U1eAydfDt8y_0uh5-77" target="rgN-U1eAydfDt8y_0uh5-86">
          <mxGeometry width="50" height="50" relative="1" as="geometry">
            <mxPoint x="671" y="82.5" as="sourcePoint" />
            <mxPoint x="679" y="48.5" as="targetPoint" />
          </mxGeometry>
        </mxCell>
        <mxCell id="rgN-U1eAydfDt8y_0uh5-132" value="" style="endArrow=none;html=1;rounded=0;entryX=1;entryY=0.5;entryDx=0;entryDy=0;exitX=0;exitY=0.75;exitDx=0;exitDy=0;" edge="1" parent="1" source="rgN-U1eAydfDt8y_0uh5-77" target="rgN-U1eAydfDt8y_0uh5-120">
          <mxGeometry width="50" height="50" relative="1" as="geometry">
            <mxPoint x="691" y="102.5" as="sourcePoint" />
            <mxPoint x="611" y="102.5" as="targetPoint" />
          </mxGeometry>
        </mxCell>
        <mxCell id="rgN-U1eAydfDt8y_0uh5-133" value="" style="endArrow=none;html=1;rounded=0;entryX=0.5;entryY=0;entryDx=0;entryDy=0;exitX=0;exitY=1;exitDx=0;exitDy=0;" edge="1" parent="1" source="rgN-U1eAydfDt8y_0uh5-77" target="rgN-U1eAydfDt8y_0uh5-121">
          <mxGeometry width="50" height="50" relative="1" as="geometry">
            <mxPoint x="691" y="107.5" as="sourcePoint" />
            <mxPoint x="611" y="137.5" as="targetPoint" />
          </mxGeometry>
        </mxCell>
        <mxCell id="rgN-U1eAydfDt8y_0uh5-134" value="" style="endArrow=none;html=1;rounded=0;exitX=0.5;exitY=0;exitDx=0;exitDy=0;entryX=0.25;entryY=1;entryDx=0;entryDy=0;" edge="1" parent="1" source="rgN-U1eAydfDt8y_0uh5-124" target="rgN-U1eAydfDt8y_0uh5-77">
          <mxGeometry width="50" height="50" relative="1" as="geometry">
            <mxPoint x="751" y="92.5" as="sourcePoint" />
            <mxPoint x="713" y="112.5" as="targetPoint" />
          </mxGeometry>
        </mxCell>
        <mxCell id="rgN-U1eAydfDt8y_0uh5-135" value="" style="endArrow=none;html=1;rounded=0;exitX=0.75;exitY=1;exitDx=0;exitDy=0;entryX=0.5;entryY=0;entryDx=0;entryDy=0;" edge="1" parent="1" source="rgN-U1eAydfDt8y_0uh5-77" target="rgN-U1eAydfDt8y_0uh5-123">
          <mxGeometry width="50" height="50" relative="1" as="geometry">
            <mxPoint x="751" y="92.5" as="sourcePoint" />
            <mxPoint x="751" y="62.5" as="targetPoint" />
          </mxGeometry>
        </mxCell>
        <mxCell id="rgN-U1eAydfDt8y_0uh5-245" value="Сервіси" style="rounded=0;whiteSpace=wrap;html=1;" vertex="1" parent="1">
          <mxGeometry x="82" y="62.5" width="120" height="20" as="geometry" />
        </mxCell>
        <mxCell id="rgN-U1eAydfDt8y_0uh5-246" value="дата створення" style="ellipse;whiteSpace=wrap;html=1;" vertex="1" parent="1">
          <mxGeometry x="202" y="82.5" width="80" height="30" as="geometry" />
        </mxCell>
        <mxCell id="rgN-U1eAydfDt8y_0uh5-247" value="опис" style="ellipse;whiteSpace=wrap;html=1;" vertex="1" parent="1">
          <mxGeometry x="202" y="32.5" width="80" height="30" as="geometry" />
        </mxCell>
        <mxCell id="rgN-U1eAydfDt8y_0uh5-248" value="" style="endArrow=none;html=1;rounded=0;entryX=0;entryY=1;entryDx=0;entryDy=0;exitX=1;exitY=0;exitDx=0;exitDy=0;" edge="1" parent="1" source="rgN-U1eAydfDt8y_0uh5-245" target="rgN-U1eAydfDt8y_0uh5-247">
          <mxGeometry width="50" height="50" relative="1" as="geometry">
            <mxPoint x="242" y="112.5" as="sourcePoint" />
            <mxPoint x="292" y="62.5" as="targetPoint" />
          </mxGeometry>
        </mxCell>
        <mxCell id="rgN-U1eAydfDt8y_0uh5-249" value="" style="endArrow=none;html=1;rounded=0;entryX=0;entryY=0;entryDx=0;entryDy=0;exitX=1;exitY=1;exitDx=0;exitDy=0;" edge="1" parent="1" source="rgN-U1eAydfDt8y_0uh5-245" target="rgN-U1eAydfDt8y_0uh5-246">
          <mxGeometry width="50" height="50" relative="1" as="geometry">
            <mxPoint x="222" y="102.5" as="sourcePoint" />
            <mxPoint x="282" y="82.5" as="targetPoint" />
          </mxGeometry>
        </mxCell>
        <mxCell id="rgN-U1eAydfDt8y_0uh5-250" value="" style="endArrow=none;html=1;rounded=0;entryX=0.5;entryY=0;entryDx=0;entryDy=0;exitX=0.5;exitY=1;exitDx=0;exitDy=0;" edge="1" parent="1" source="rgN-U1eAydfDt8y_0uh5-245" target="rgN-U1eAydfDt8y_0uh5-253">
          <mxGeometry width="50" height="50" relative="1" as="geometry">
            <mxPoint x="182" y="132.5" as="sourcePoint" />
            <mxPoint x="214" y="146.5" as="targetPoint" />
          </mxGeometry>
        </mxCell>
        <mxCell id="rgN-U1eAydfDt8y_0uh5-251" value="" style="endArrow=none;html=1;rounded=0;exitX=0.5;exitY=0;exitDx=0;exitDy=0;entryX=0.5;entryY=1;entryDx=0;entryDy=0;" edge="1" parent="1" source="rgN-U1eAydfDt8y_0uh5-245" target="rgN-U1eAydfDt8y_0uh5-252">
          <mxGeometry width="50" height="50" relative="1" as="geometry">
            <mxPoint x="141.91999999999996" y="52.5" as="sourcePoint" />
            <mxPoint x="152" y="52.5" as="targetPoint" />
          </mxGeometry>
        </mxCell>
        <mxCell id="rgN-U1eAydfDt8y_0uh5-252" value="&lt;p&gt;ідентифікатор сервісу&lt;/p&gt;" style="ellipse;whiteSpace=wrap;html=1;" vertex="1" parent="1">
          <mxGeometry x="92" y="2.5" width="100" height="50" as="geometry" />
        </mxCell>
        <mxCell id="rgN-U1eAydfDt8y_0uh5-253" value="заголовок" style="ellipse;whiteSpace=wrap;html=1;" vertex="1" parent="1">
          <mxGeometry x="102" y="92.5" width="80" height="30" as="geometry" />
        </mxCell>
        <mxCell id="rgN-U1eAydfDt8y_0uh5-254" value="&lt;u&gt;фрілансер&lt;/u&gt;" style="ellipse;whiteSpace=wrap;html=1;" vertex="1" parent="1">
          <mxGeometry x="2" y="82.5" width="80" height="30" as="geometry" />
        </mxCell>
        <mxCell id="rgN-U1eAydfDt8y_0uh5-255" value="&lt;u&gt;категорія&lt;/u&gt;" style="ellipse;whiteSpace=wrap;html=1;" vertex="1" parent="1">
          <mxGeometry x="2" y="32.5" width="80" height="30" as="geometry" />
        </mxCell>
        <mxCell id="rgN-U1eAydfDt8y_0uh5-256" value="" style="endArrow=none;html=1;rounded=0;entryX=1;entryY=1;entryDx=0;entryDy=0;exitX=0;exitY=0;exitDx=0;exitDy=0;" edge="1" parent="1" source="rgN-U1eAydfDt8y_0uh5-245" target="rgN-U1eAydfDt8y_0uh5-255">
          <mxGeometry width="50" height="50" relative="1" as="geometry">
            <mxPoint x="212" y="72.5" as="sourcePoint" />
            <mxPoint x="224" y="68.5" as="targetPoint" />
          </mxGeometry>
        </mxCell>
        <mxCell id="rgN-U1eAydfDt8y_0uh5-257" value="" style="endArrow=none;html=1;rounded=0;entryX=1;entryY=0;entryDx=0;entryDy=0;exitX=0;exitY=1;exitDx=0;exitDy=0;" edge="1" parent="1" source="rgN-U1eAydfDt8y_0uh5-245" target="rgN-U1eAydfDt8y_0uh5-254">
          <mxGeometry width="50" height="50" relative="1" as="geometry">
            <mxPoint x="92" y="72.5" as="sourcePoint" />
            <mxPoint x="80" y="68.5" as="targetPoint" />
          </mxGeometry>
        </mxCell>
        <mxCell id="rgN-U1eAydfDt8y_0uh5-96" value="назва" style="ellipse;whiteSpace=wrap;html=1;" vertex="1" parent="1">
          <mxGeometry x="700" y="335" width="80" height="30" as="geometry" />
        </mxCell>
        <mxCell id="rgN-U1eAydfDt8y_0uh5-218" value="Пакети сервісів" style="rounded=0;whiteSpace=wrap;html=1;" vertex="1" parent="1">
          <mxGeometry x="263" y="260" width="120" height="20" as="geometry" />
        </mxCell>
        <mxCell id="rgN-U1eAydfDt8y_0uh5-219" value="ціна" style="ellipse;whiteSpace=wrap;html=1;" vertex="1" parent="1">
          <mxGeometry x="383" y="280" width="80" height="30" as="geometry" />
        </mxCell>
        <mxCell id="rgN-U1eAydfDt8y_0uh5-220" value="опис" style="ellipse;whiteSpace=wrap;html=1;" vertex="1" parent="1">
          <mxGeometry x="383" y="230" width="80" height="30" as="geometry" />
        </mxCell>
        <mxCell id="rgN-U1eAydfDt8y_0uh5-221" value="" style="endArrow=none;html=1;rounded=0;entryX=0;entryY=1;entryDx=0;entryDy=0;exitX=1;exitY=0;exitDx=0;exitDy=0;" edge="1" parent="1" source="rgN-U1eAydfDt8y_0uh5-218" target="rgN-U1eAydfDt8y_0uh5-220">
          <mxGeometry width="50" height="50" relative="1" as="geometry">
            <mxPoint x="423" y="310" as="sourcePoint" />
            <mxPoint x="473" y="260" as="targetPoint" />
          </mxGeometry>
        </mxCell>
        <mxCell id="rgN-U1eAydfDt8y_0uh5-222" value="" style="endArrow=none;html=1;rounded=0;entryX=0;entryY=0;entryDx=0;entryDy=0;exitX=1;exitY=1;exitDx=0;exitDy=0;" edge="1" parent="1" source="rgN-U1eAydfDt8y_0uh5-218" target="rgN-U1eAydfDt8y_0uh5-219">
          <mxGeometry width="50" height="50" relative="1" as="geometry">
            <mxPoint x="403" y="300" as="sourcePoint" />
            <mxPoint x="463" y="280" as="targetPoint" />
          </mxGeometry>
        </mxCell>
        <mxCell id="rgN-U1eAydfDt8y_0uh5-223" value="" style="endArrow=none;html=1;rounded=0;entryX=0.5;entryY=0;entryDx=0;entryDy=0;exitX=0.5;exitY=1;exitDx=0;exitDy=0;" edge="1" parent="1" source="rgN-U1eAydfDt8y_0uh5-218" target="rgN-U1eAydfDt8y_0uh5-226">
          <mxGeometry width="50" height="50" relative="1" as="geometry">
            <mxPoint x="363" y="330" as="sourcePoint" />
            <mxPoint x="395" y="344" as="targetPoint" />
          </mxGeometry>
        </mxCell>
        <mxCell id="rgN-U1eAydfDt8y_0uh5-224" value="" style="endArrow=none;html=1;rounded=0;exitX=0.5;exitY=0;exitDx=0;exitDy=0;entryX=0.5;entryY=1;entryDx=0;entryDy=0;" edge="1" parent="1" source="rgN-U1eAydfDt8y_0uh5-218" target="rgN-U1eAydfDt8y_0uh5-225">
          <mxGeometry width="50" height="50" relative="1" as="geometry">
            <mxPoint x="322.9200000000001" y="250" as="sourcePoint" />
            <mxPoint x="333" y="250" as="targetPoint" />
          </mxGeometry>
        </mxCell>
        <mxCell id="rgN-U1eAydfDt8y_0uh5-226" value="кількість днів для доставки" style="ellipse;whiteSpace=wrap;html=1;" vertex="1" parent="1">
          <mxGeometry x="270.5" y="290" width="105" height="50" as="geometry" />
        </mxCell>
        <mxCell id="rgN-U1eAydfDt8y_0uh5-229" value="" style="endArrow=none;html=1;rounded=0;entryX=1;entryY=1;entryDx=0;entryDy=0;exitX=0;exitY=0;exitDx=0;exitDy=0;" edge="1" parent="1" source="rgN-U1eAydfDt8y_0uh5-218" target="rgN-U1eAydfDt8y_0uh5-228">
          <mxGeometry width="50" height="50" relative="1" as="geometry">
            <mxPoint x="393" y="270" as="sourcePoint" />
            <mxPoint x="405" y="266" as="targetPoint" />
          </mxGeometry>
        </mxCell>
        <mxCell id="rgN-U1eAydfDt8y_0uh5-230" value="" style="endArrow=none;html=1;rounded=0;entryX=1;entryY=0;entryDx=0;entryDy=0;exitX=0;exitY=1;exitDx=0;exitDy=0;" edge="1" parent="1" source="rgN-U1eAydfDt8y_0uh5-218" target="rgN-U1eAydfDt8y_0uh5-227">
          <mxGeometry width="50" height="50" relative="1" as="geometry">
            <mxPoint x="273" y="270" as="sourcePoint" />
            <mxPoint x="261" y="266" as="targetPoint" />
          </mxGeometry>
        </mxCell>
        <mxCell id="rgN-U1eAydfDt8y_0uh5-225" value="&lt;p&gt;ідентифікатор пакета&lt;br&gt;&lt;/p&gt;" style="ellipse;whiteSpace=wrap;html=1;" vertex="1" parent="1">
          <mxGeometry x="273" y="200" width="100" height="50" as="geometry" />
        </mxCell>
        <mxCell id="rgN-U1eAydfDt8y_0uh5-227" value="заголовок" style="ellipse;whiteSpace=wrap;html=1;" vertex="1" parent="1">
          <mxGeometry x="183" y="280" width="80" height="30" as="geometry" />
        </mxCell>
        <mxCell id="rgN-U1eAydfDt8y_0uh5-228" value="&lt;u&gt;сервіс&lt;/u&gt;" style="ellipse;whiteSpace=wrap;html=1;" vertex="1" parent="1">
          <mxGeometry x="183" y="230" width="80" height="30" as="geometry" />
        </mxCell>
        <mxCell id="rgN-U1eAydfDt8y_0uh5-97" value="&lt;p&gt;ідентифікатор файлу&lt;/p&gt;" style="ellipse;whiteSpace=wrap;html=1;" vertex="1" parent="1">
          <mxGeometry x="690" y="245" width="100" height="50" as="geometry" />
        </mxCell>
      </root>
    </mxGraphModel>
  </diagram>
</mxfile>
